<svg id="e9o3CVxX1bT1" xmlns="http://www.w3.org/2000/svg" xmlns:xlink="http://www.w3.org/1999/xlink" viewBox="0 0 1778 1000" shape-rendering="geometricPrecision" text-rendering="geometricPrecision"><polygon points="0,-22.775391 6.693519,-9.212839 21.660684,-7.037983 10.830342,3.518991 13.387039,18.425678 0,11.387696 -13.387039,18.425678 -10.830342,3.518991 -21.660684,-7.037983 -6.693519,-9.212839 0,-22.775391" transform="matrix(-.847998 0.529999-.529999-.847998 1041.325428 43.535583)" fill="rgba(255,255,255,0.44)" stroke-width="0"/><polygon points="0,-22.775391 6.693519,-9.212839 21.660684,-7.037983 10.830342,3.518991 13.387039,18.425678 0,11.387696 -13.387039,18.425678 -10.830342,3.518991 -21.660684,-7.037983 -6.693519,-9.212839 0,-22.775391" transform="matrix(-.971633 0.607271-.575204-.920327 1694.810867 870.828818)" fill="rgba(255,255,255,0.44)" stroke-width="0"/><polygon points="0,-22.775391 6.693519,-9.212839 21.660684,-7.037983 10.830342,3.518991 13.387039,18.425678 0,11.387696 -13.387039,18.425678 -10.830342,3.518991 -21.660684,-7.037983 -6.693519,-9.212839 0,-22.775391" transform="matrix(-.283181 0.480047-.454698-.268227 1686.00011 545.297906)" fill="rgba(255,255,255,0.44)" stroke-width="0"/><polygon points="0,-22.775391 6.693519,-9.212839 21.660684,-7.037983 10.830342,3.518991 13.387039,18.425678 0,11.387696 -13.387039,18.425678 -10.830342,3.518991 -21.660684,-7.037983 -6.693519,-9.212839 0,-22.775391" transform="matrix(-.847998 0.529999-.529999-.847998 1674.794214 78.474019)" fill="rgba(255,255,255,0.44)" stroke-width="0"/><polygon points="0,-22.775391 6.693519,-9.212839 21.660684,-7.037983 10.830342,3.518991 13.387039,18.425678 0,11.387696 -13.387039,18.425678 -10.830342,3.518991 -21.660684,-7.037983 -6.693519,-9.212839 0,-22.775391" transform="matrix(-.847998 0.529999-.529999-.847998 497.965638 74.397562)" fill="rgba(255,255,255,0.44)" stroke-width="0"/><polygon points="0,-22.775391 6.693519,-9.212839 21.660684,-7.037983 10.830342,3.518991 13.387039,18.425678 0,11.387696 -13.387039,18.425678 -10.830342,3.518991 -21.660684,-7.037983 -6.693519,-9.212839 0,-22.775391" transform="matrix(-.971635 0.607272-.575205-.920327 933.734422 899.77809)" fill="rgba(255,255,255,0.44)" stroke-width="0"/><polygon points="0,-22.775391 6.693519,-9.212839 21.660684,-7.037983 10.830342,3.518991 13.387039,18.425678 0,11.387696 -13.387039,18.425678 -10.830342,3.518991 -21.660684,-7.037983 -6.693519,-9.212839 0,-22.775391" transform="matrix(-.582625 0.364141-.4623-.739679 1413.239289 717.039898)" fill="rgba(255,255,255,0.44)" stroke-width="0"/><polygon points="0,-22.775391 6.693519,-9.212839 21.660684,-7.037983 10.830342,3.518991 13.387039,18.425678 0,11.387696 -13.387039,18.425678 -10.830342,3.518991 -21.660684,-7.037983 -6.693519,-9.212839 0,-22.775391" transform="matrix(-.971635 0.607272-.575205-.920327 1377.001504 298.417934)" fill="rgba(255,255,255,0.44)" stroke-width="0"/><polygon points="0,-22.775391 6.693519,-9.212839 21.660684,-7.037983 10.830342,3.518991 13.387039,18.425678 0,11.387696 -13.387039,18.425678 -10.830342,3.518991 -21.660684,-7.037983 -6.693519,-9.212839 0,-22.775391" transform="matrix(-.745085 0.66697-.66697-.745085 172.127779 534.457323)" fill="rgba(255,255,255,0.44)" stroke-width="0"/><polygon points="0,-22.775391 6.693519,-9.212839 21.660684,-7.037983 10.830342,3.518991 13.387039,18.425678 0,11.387696 -13.387039,18.425678 -10.830342,3.518991 -21.660684,-7.037983 -6.693519,-9.212839 0,-22.775391" transform="matrix(-.815626 0.433961-.388362-.729924 620.109297 528.85335)" fill="rgba(255,255,255,0.44)" stroke-width="0"/><polygon points="0,-22.775391 6.693519,-9.212839 21.660684,-7.037983 10.830342,3.518991 13.387039,18.425678 0,11.387696 -13.387039,18.425678 -10.830342,3.518991 -21.660684,-7.037983 -6.693519,-9.212839 0,-22.775391" transform="matrix(.126911 0.991914-.991914 0.126911 23.709601 886.348442)" fill="rgba(255,255,255,0.44)" stroke-width="0"/><g transform="matrix(.801045 0 0 1.096083-138.351274-208.304487)"><ellipse rx="154.50795" ry="142.800151" transform="matrix(1.25 0 0 0.953972 431.771626 357.199849)" fill="#ffe200" stroke-width="0"/><ellipse rx="177.8" ry="100" transform="matrix(.977624 0 0 1.138298 525.924909 357.199849)" stroke-width="0"/></g><polygon points="0,-22.775391 6.693519,-9.212839 21.660684,-7.037983 10.830342,3.518991 13.387039,18.425678 0,11.387696 -13.387039,18.425678 -10.830342,3.518991 -21.660684,-7.037983 -6.693519,-9.212839 0,-22.775391" transform="matrix(-.283181 0.480047-.454698-.268227 924.799757 613.019313)" fill="rgba(255,255,255,0.44)" stroke-width="0"/><polygon points="0,-22.775391 6.693519,-9.212839 21.660684,-7.037983 10.830342,3.518991 13.387039,18.425678 0,11.387696 -13.387039,18.425678 -10.830342,3.518991 -21.660684,-7.037983 -6.693519,-9.212839 0,-22.775391" transform="matrix(-.283181 0.480047-.454698-.268227 1686.00011 545.297906)" fill="rgba(255,255,255,0.44)" stroke-width="0"/><polygon points="0,-22.775391 6.693519,-9.212839 21.660684,-7.037983 10.830342,3.518991 13.387039,18.425678 0,11.387696 -13.387039,18.425678 -10.830342,3.518991 -21.660684,-7.037983 -6.693519,-9.212839 0,-22.775391" transform="matrix(-.283181 0.480047-.454698-.268227 516.497629 911.314778)" fill="rgba(255,255,255,0.44)" stroke-width="0"/></svg>
